<?xml version="1.0" standalone="no"?>
<!DOCTYPE svg PUBLIC "-//W3C//DTD SVG 20010904//EN"
 "http://www.w3.org/TR/2001/REC-SVG-20010904/DTD/svg10.dtd">
<svg version="1.0" xmlns="http://www.w3.org/2000/svg"
 width="6464.000000pt" height="2144.000000pt" viewBox="0 0 6464.000000 2144.000000"
 preserveAspectRatio="xMidYMid meet">
<metadata>
Created by potrace 1.13, written by Peter Selinger 2001-2015
</metadata>
<g transform="translate(0.000000,2144.000000) scale(0.100000,-0.100000)"
fill="#000000" stroke="none">
<path d="M3220 13765 l0 -4375 900 0 900 0 2 3397 3 3398 769 -3335 c423
-1834 775 -3363 783 -3398 l15 -62 900 2 901 3 771 3395 771 3394 3 -3397 2
-3397 900 0 900 0 0 4375 0 4375 -1355 0 -1354 0 -9 -32 c-5 -18 -350 -1582
-768 -3476 -462 -2097 -762 -3435 -766 -3425 -7 16 -1578 6915 -1578 6928 0 3
-605 5 -1345 5 l-1345 0 0 -4375z"/>
<path d="M13540 17390 l0 -750 840 0 840 0 0 750 0 750 -840 0 -840 0 0 -750z"/>
<path d="M24240 17390 l0 -750 840 0 840 0 0 750 0 750 -840 0 -840 0 0 -750z"/>
<path d="M45060 13765 l0 -4375 840 0 840 0 0 4375 0 4375 -840 0 -840 0 0
-4375z"/>
<path d="M48360 17390 l0 -750 840 0 840 0 0 750 0 750 -840 0 -840 0 0 -750z"/>
<path d="M58630 16610 l0 -870 -415 0 -415 0 0 -560 0 -560 415 0 415 0 0
-2047 c0 -1355 4 -2087 11 -2163 26 -284 103 -528 226 -713 99 -149 281 -310
446 -394 283 -143 681 -206 1163 -183 115 6 270 19 344 30 128 19 343 66 403
89 l27 11 0 585 c0 461 -3 585 -12 585 -7 0 -60 -7 -118 -15 -137 -19 -394
-19 -481 -1 -173 37 -257 127 -302 320 -21 90 -21 103 -24 1993 l-4 1903 468
2 468 3 0 555 0 555 -467 3 -468 2 0 870 0 870 -840 0 -840 0 0 -870z"/>
<path d="M20290 15974 c-777 -54 -1270 -336 -1738 -993 l-32 -45 0 467 0 467
-840 0 -840 0 0 -3240 0 -3240 840 0 840 0 3 2043 3 2042 21 93 c74 319 216
546 451 720 383 284 1034 348 1447 143 314 -156 472 -443 505 -916 6 -94 10
-895 10 -2137 l0 -1988 840 0 841 0 -4 2298 c-3 1686 -7 2322 -16 2392 -72
584 -244 988 -555 1309 -312 321 -732 511 -1256 570 -103 12 -431 21 -520 15z"/>
<path d="M30810 15974 c-478 -41 -795 -164 -1140 -441 -98 -79 -284 -261 -388
-381 l-72 -82 0 400 0 400 -835 0 -835 0 0 -3240 0 -3240 840 0 840 0 3 2058
c3 1892 4 2064 20 2142 84 415 261 677 565 833 250 129 585 162 879 86 279
-71 479 -263 565 -541 l23 -73 3 -2252 2 -2253 840 0 839 0 4 2038 c2 1593 6
2053 16 2112 59 348 196 611 400 773 138 108 288 176 479 214 124 25 397 25
507 -1 197 -45 316 -107 435 -226 129 -128 194 -269 220 -474 6 -52 10 -853
10 -2258 l0 -2178 840 0 840 0 0 2329 c0 1487 -4 2375 -10 2457 -42 529 -209
934 -512 1243 -292 296 -666 467 -1178 537 -153 21 -546 24 -695 5 -610 -76
-1058 -325 -1461 -811 l-107 -130 -46 80 c-69 121 -126 194 -236 309 -291 301
-672 483 -1145 546 -106 15 -426 26 -510 19z"/>
<path d="M40565 15969 c-670 -38 -1230 -211 -1617 -501 -119 -89 -288 -257
-374 -370 -229 -304 -368 -664 -433 -1123 -11 -77 -21 -162 -23 -190 l-2 -50
808 0 809 0 17 100 c45 266 117 422 251 549 120 113 269 175 511 213 159 25
610 25 750 0 352 -62 555 -215 613 -459 20 -84 19 -244 -1 -322 -46 -177 -174
-311 -387 -402 -159 -69 -345 -111 -717 -165 -245 -35 -938 -157 -1110 -195
-1051 -232 -1597 -803 -1680 -1754 -107 -1226 624 -2110 1802 -2179 585 -35
1137 131 1633 489 131 95 300 238 400 339 44 45 82 81 86 81 3 0 9 -62 12
-137 8 -199 47 -319 150 -458 l32 -44 913 -1 912 0 0 103 0 103 -76 74 c-145
144 -227 271 -276 430 l-23 75 -5 2025 c-7 2201 -3 2076 -61 2323 -133 568
-499 979 -1081 1213 -465 187 -1135 272 -1833 233z m1315 -4234 c-48 -473
-226 -828 -521 -1038 -203 -144 -497 -228 -796 -227 -199 1 -354 34 -512 112
-91 43 -116 62 -191 137 -96 97 -155 199 -187 326 -26 104 -23 353 5 456 65
240 231 407 516 518 151 59 329 102 746 181 628 119 749 149 887 219 l58 29 3
-302 c2 -173 -2 -348 -8 -411z"/>
<path d="M53850 15969 c-677 -42 -1236 -234 -1659 -568 -109 -86 -281 -266
-363 -382 -83 -116 -205 -358 -252 -499 -133 -405 -142 -903 -24 -1265 126
-387 405 -676 829 -859 156 -67 158 -68 1424 -461 1073 -333 1214 -378 1322
-426 211 -94 310 -217 321 -398 6 -105 -8 -172 -52 -256 -105 -200 -376 -337
-786 -396 -213 -30 -652 -27 -860 7 -284 45 -480 132 -620 274 -104 107 -175
247 -223 441 l-22 89 -824 0 -824 0 7 -82 c26 -315 92 -586 199 -808 341 -710
1068 -1117 2202 -1235 336 -34 878 -37 1180 -5 850 89 1487 392 1878 892 367
470 513 1132 380 1728 -65 293 -183 512 -387 715 -178 177 -424 326 -696 420
-58 20 -603 180 -1211 356 -609 175 -1147 333 -1195 350 -113 39 -257 107
-311 147 -154 114 -179 375 -55 568 176 273 667 398 1245 318 497 -69 774
-292 841 -679 9 -50 16 -109 16 -132 l0 -43 810 0 810 0 0 54 c0 90 -20 254
-46 386 -61 306 -202 614 -383 840 -436 545 -1157 855 -2115 910 -198 11 -368
11 -556 -1z"/>
<path d="M13540 12630 l0 -3240 840 0 840 0 0 3240 0 3240 -840 0 -840 0 0
-3240z"/>
<path d="M24240 12630 l0 -3240 840 0 840 0 0 3240 0 3240 -840 0 -840 0 0
-3240z"/>
<path d="M48360 12630 l0 -3240 840 0 840 0 0 3240 0 3240 -840 0 -840 0 0
-3240z"/>
<path d="M41070 5850 l0 -260 150 0 150 0 0 260 0 260 -150 0 -150 0 0 -260z"/>
<path d="M26404 5996 c-55 -24 -70 -119 -25 -160 25 -23 115 -36 254 -36 l117
0 0 -582 c0 -320 -4 -578 -8 -573 -4 6 -34 43 -67 83 -154 193 -349 325 -566
384 -75 20 -105 23 -274 22 -176 0 -196 -2 -276 -27 -119 -36 -185 -67 -283
-130 -262 -171 -447 -454 -496 -759 -19 -117 -8 -371 20 -478 75 -284 269
-540 525 -692 281 -168 679 -182 970 -35 139 69 305 212 403 345 l47 64 3
-216 2 -216 261 0 c276 0 315 6 338 48 6 12 11 36 11 56 0 86 -27 98 -237 104
l-163 5 0 1403 0 1404 -262 0 c-197 -1 -271 -4 -294 -14z m-309 -1085 c323
-85 572 -354 640 -690 22 -105 16 -353 -10 -446 -40 -148 -155 -331 -271 -434
-174 -155 -352 -221 -597 -221 -257 0 -451 83 -633 271 -117 121 -191 255
-231 416 -25 101 -24 343 1 443 90 350 358 609 701 676 99 19 297 12 400 -15z"/>
<path d="M30614 5996 c-55 -24 -70 -119 -25 -160 25 -23 115 -36 254 -36 l117
0 0 -1300 0 -1300 -122 -1 c-174 -1 -226 -10 -255 -43 -41 -48 -25 -123 32
-151 27 -12 79 -15 294 -15 l261 0 2 215 3 215 52 -68 c66 -87 210 -226 286
-276 297 -195 701 -219 1020 -60 266 133 485 392 571 674 36 121 46 196 46
353 0 317 -97 559 -310 777 -108 110 -183 164 -314 226 -156 73 -231 88 -446
89 -205 0 -256 -9 -402 -70 -156 -66 -345 -218 -459 -369 l-44 -59 -3 686 -2
687 -263 0 c-196 -1 -270 -4 -293 -14z m1611 -1071 c267 -47 496 -223 625
-480 76 -151 93 -227 93 -420 1 -184 -16 -262 -82 -400 -88 -184 -259 -351
-447 -436 -215 -98 -527 -93 -735 11 -181 91 -347 263 -430 445 -54 121 -73
215 -73 380 -1 164 12 240 65 367 93 226 302 423 534 503 129 44 300 56 450
30z"/>
<path d="M45830 5999 c-46 -19 -60 -39 -60 -89 0 -89 48 -108 273 -109 l127
-1 0 -1299 0 -1298 -162 -5 c-211 -6 -238 -18 -238 -104 0 -20 5 -44 11 -56
23 -42 62 -48 339 -48 l260 0 0 453 0 452 110 93 c60 50 113 92 117 92 4 0
206 -198 448 -440 l440 -440 -55 -1 c-107 -1 -162 -14 -187 -43 -41 -48 -25
-123 32 -151 47 -22 757 -23 810 -1 40 17 55 42 55 90 0 83 -28 97 -221 105
l-146 6 -511 505 -512 505 392 327 393 328 138 0 c147 0 196 11 216 48 14 26
14 87 1 111 -22 43 -56 46 -445 46 -389 0 -423 -3 -445 -46 -13 -23 -13 -85 0
-109 17 -32 51 -44 140 -50 l84 -5 -424 -361 -425 -361 -3 934 -2 933 -263 -1
c-148 0 -273 -5 -287 -10z"/>
<path d="M52190 5999 c-46 -19 -60 -39 -60 -89 0 -59 29 -90 97 -101 27 -4
175 -8 331 -8 l282 -1 0 -1300 0 -1300 -387 -1 c-445 -1 -486 -4 -520 -43 -41
-48 -25 -123 33 -151 29 -14 139 -15 999 -13 l967 3 29 33 c36 40 39 90 7 127
-35 39 -101 45 -530 45 l-388 0 0 1405 0 1405 -417 -1 c-251 0 -428 -4 -443
-10z"/>
<path d="M55190 5999 c-46 -19 -60 -39 -60 -89 0 -59 29 -90 97 -101 27 -4
175 -8 331 -8 l282 -1 0 -1300 0 -1300 -387 -1 c-445 -1 -486 -4 -520 -43 -41
-48 -25 -123 33 -151 29 -14 139 -15 999 -13 l967 3 29 33 c36 40 39 90 7 127
-35 39 -101 45 -530 45 l-388 0 0 1405 0 1405 -417 -1 c-251 0 -428 -4 -443
-10z"/>
<path d="M7836 5125 c-142 -29 -265 -83 -376 -165 -64 -48 -195 -177 -258
-255 l-32 -40 0 208 0 207 -227 -1 c-280 -1 -328 -6 -360 -43 -41 -48 -25
-123 32 -151 26 -11 69 -15 189 -15 l156 0 0 -1300 0 -1300 -122 -1 c-174 -1
-226 -10 -255 -43 -41 -48 -25 -123 32 -151 47 -22 1067 -23 1120 -1 40 17 55
42 55 90 0 49 -8 64 -44 84 -26 14 -71 17 -303 20 l-273 4 0 621 1 622 26 -35
c64 -84 231 -238 313 -288 202 -124 452 -174 706 -142 436 55 793 358 906 770
20 75 23 107 23 275 0 168 -3 200 -23 275 -98 357 -385 640 -748 737 -87 23
-122 26 -284 29 -132 2 -205 -1 -254 -11z m469 -215 c97 -24 225 -84 297 -138
238 -177 361 -438 344 -732 -12 -215 -87 -380 -243 -535 -175 -173 -381 -255
-643 -255 -254 0 -448 74 -621 237 -124 117 -197 234 -241 389 -30 104 -32
323 -4 424 57 211 210 406 412 524 71 41 217 92 302 106 92 15 305 4 397 -20z"/>
<path d="M10749 5130 c-362 -65 -672 -299 -831 -625 -149 -308 -143 -692 17
-992 196 -371 584 -602 1010 -603 320 0 606 119 831 346 280 281 377 664 273
1073 -24 96 -113 276 -178 362 -116 152 -303 299 -466 365 -156 64 -221 76
-425 80 -102 1 -206 -1 -231 -6z m443 -219 c180 -47 308 -123 441 -260 128
-133 196 -262 233 -441 24 -118 16 -347 -16 -445 -45 -142 -106 -241 -219
-359 -151 -156 -315 -244 -514 -276 -99 -16 -332 -8 -417 15 -88 23 -219 85
-293 139 -91 64 -218 202 -271 292 -26 44 -61 122 -78 174 -32 93 -32 98 -32
280 0 176 1 189 28 270 108 329 399 576 741 630 95 14 308 4 397 -19z"/>
<path d="M16672 5125 c-422 -77 -768 -383 -874 -775 -20 -75 -23 -108 -23
-280 0 -182 2 -202 28 -294 55 -199 150 -359 303 -512 93 -92 210 -177 319
-232 337 -167 786 -160 1247 19 231 90 358 186 358 269 0 51 -49 100 -99 100
-11 0 -61 -28 -112 -62 -152 -99 -313 -165 -516 -209 -139 -30 -415 -38 -536
-15 -309 58 -561 244 -692 511 -42 84 -83 209 -99 298 l-7 37 1036 0 c964 0
1036 1 1042 17 10 26 -14 238 -38 333 -105 417 -436 720 -867 795 -105 19
-369 18 -470 0z m408 -199 c298 -45 549 -224 679 -483 26 -53 81 -217 81 -244
0 -5 -397 -9 -935 -9 -514 0 -935 2 -935 4 0 2 11 43 26 92 133 460 569 717
1084 640z"/>
<path d="M22672 5125 c-422 -77 -768 -383 -874 -775 -20 -75 -23 -108 -23
-280 0 -182 2 -202 28 -294 55 -199 150 -359 303 -512 93 -92 210 -177 319
-232 337 -167 786 -160 1247 19 231 90 358 186 358 269 0 51 -49 100 -99 100
-11 0 -61 -28 -112 -62 -152 -99 -313 -165 -516 -209 -139 -30 -415 -38 -536
-15 -309 58 -561 244 -692 511 -42 84 -83 209 -99 298 l-7 37 1036 0 c964 0
1036 1 1042 17 10 26 -14 238 -38 333 -105 417 -436 720 -867 795 -105 19
-369 18 -470 0z m408 -199 c298 -45 549 -224 679 -483 26 -53 81 -217 81 -244
0 -5 -397 -9 -935 -9 -514 0 -935 2 -935 4 0 2 11 43 26 92 133 460 569 717
1084 640z"/>
<path d="M43672 5125 c-422 -77 -768 -383 -874 -775 -20 -75 -23 -108 -23
-280 0 -182 2 -202 28 -294 55 -199 150 -359 303 -512 93 -92 210 -177 319
-232 337 -167 786 -160 1247 19 231 90 358 186 358 269 0 51 -49 100 -99 100
-11 0 -61 -28 -112 -62 -152 -99 -313 -165 -516 -209 -139 -30 -415 -38 -536
-15 -309 58 -561 244 -692 511 -42 84 -83 209 -99 298 l-7 37 1036 0 c964 0
1036 1 1042 17 10 26 -14 238 -38 333 -105 417 -436 720 -867 795 -105 19
-369 18 -470 0z m408 -199 c298 -45 549 -224 679 -483 26 -53 81 -217 81 -244
0 -5 -397 -9 -935 -9 -514 0 -935 2 -935 4 0 2 11 43 26 92 133 460 569 717
1084 640z"/>
<path d="M20480 5099 c-99 -25 -253 -103 -368 -186 -80 -57 -221 -172 -379
-308 l-43 -37 0 257 0 257 -317 -4 c-277 -3 -322 -5 -349 -20 -36 -20 -44 -35
-44 -84 0 -93 33 -104 295 -104 l205 0 0 -835 0 -835 -227 -1 c-280 -1 -328
-6 -360 -43 -41 -48 -25 -123 32 -151 29 -13 135 -15 869 -15 918 0 890 -2
915 59 16 37 7 92 -18 115 -33 30 -129 36 -569 36 l-432 0 2 552 3 552 110
100 c497 452 713 566 936 496 47 -15 95 -43 179 -105 104 -77 118 -85 150 -81
69 10 101 87 65 155 -22 43 -147 154 -213 189 -32 17 -85 38 -117 47 -83 21
-232 19 -325 -6z"/>
<path d="M12696 5071 c-80 -12 -117 -75 -85 -145 17 -37 67 -56 148 -56 65 0
71 -2 76 -22 3 -13 95 -426 205 -918 110 -492 202 -905 205 -917 5 -22 9 -23
133 -23 l127 0 220 640 c121 352 222 640 225 640 3 0 107 -288 230 -640 l225
-640 125 0 125 0 204 928 c113 510 206 933 209 940 3 8 27 12 74 12 110 0 158
33 158 111 0 20 -10 40 -28 59 -25 25 -38 29 -113 35 -47 4 -202 5 -344 3
-318 -4 -335 -10 -335 -104 0 -87 39 -104 235 -104 135 0 146 -1 141 -17 -2
-10 -80 -367 -171 -793 -92 -426 -168 -776 -170 -778 -1 -2 -9 16 -18 40 -8
24 -99 284 -202 578 -103 294 -196 561 -207 593 l-20 58 -127 -3 -126 -3 -67
-200 c-241 -714 -361 -1065 -364 -1063 -4 4 -354 1563 -354 1577 0 7 49 11
150 11 202 0 240 16 240 104 0 49 -8 64 -44 84 -27 15 -69 17 -331 18 -165 1
-322 -1 -349 -5z"/>
<path d="M33820 5073 c-86 -13 -110 -34 -110 -94 0 -22 5 -49 11 -61 16 -29
70 -48 139 -48 l60 0 470 -940 470 -940 -176 -359 -176 -359 -347 -4 c-304 -3
-350 -5 -377 -20 -17 -10 -34 -25 -38 -33 -10 -26 -7 -84 5 -107 25 -47 37
-48 705 -48 544 0 630 2 659 15 72 35 74 138 2 177 -13 7 -96 14 -212 17
l-190 6 636 1295 636 1295 69 6 c104 8 134 31 134 104 0 96 -16 100 -405 100
-389 0 -405 -4 -405 -100 0 -87 25 -99 231 -105 l167 -5 -402 -824 -401 -825
-407 820 c-224 450 -407 822 -407 827 -1 4 67 7 150 7 166 0 207 10 228 56 33
72 -5 133 -90 145 -54 8 -582 10 -629 2z"/>
<path d="M40160 5073 c-86 -13 -110 -34 -110 -94 0 -22 5 -49 11 -61 25 -47
37 -48 699 -48 l620 0 -2 -1087 -3 -1088 -28 -69 c-50 -125 -152 -242 -257
-296 -106 -54 -107 -54 -555 -60 -501 -6 -495 -5 -495 -111 0 -48 32 -85 82
-94 18 -4 216 -5 438 -2 447 4 466 6 603 71 196 91 337 262 400 483 l22 78 3
1193 3 1192 -703 -1 c-387 -1 -714 -3 -728 -6z"/>
<path d="M48820 5073 c-86 -13 -110 -34 -110 -94 0 -22 5 -49 11 -61 16 -29
70 -48 139 -48 l60 0 470 -940 470 -940 -176 -359 -176 -359 -347 -4 c-304 -3
-350 -5 -377 -20 -17 -10 -34 -25 -38 -33 -10 -26 -7 -84 5 -107 25 -47 37
-48 705 -48 544 0 630 2 659 15 72 35 74 138 2 177 -13 7 -96 14 -212 17
l-190 6 636 1295 636 1295 69 6 c104 8 134 31 134 104 0 96 -16 100 -405 100
-389 0 -405 -4 -405 -100 0 -87 25 -99 231 -105 l167 -5 -402 -824 -401 -825
-407 820 c-224 450 -407 822 -407 827 -1 4 67 7 150 7 166 0 207 10 228 56 33
72 -5 133 -90 145 -54 8 -582 10 -629 2z"/>
</g>
</svg>
