<?xml version="1.0" standalone="no"?>
<!DOCTYPE svg PUBLIC "-//W3C//DTD SVG 20010904//EN"
 "http://www.w3.org/TR/2001/REC-SVG-20010904/DTD/svg10.dtd">
<svg version="1.0" xmlns="http://www.w3.org/2000/svg"
 width="550.000000pt" height="120.000000pt" viewBox="0 0 550.000000 120.000000"
 preserveAspectRatio="xMidYMid meet">
<metadata>
Created by potrace 1.13, written by Peter Selinger 2001-2015
</metadata>
<g transform="translate(0.000000,120.000000) scale(0.100000,-0.100000)"
fill="#000000" stroke="none">
<path d="M1240 640 l0 -230 50 0 c43 0 50 3 50 20 0 18 2 18 36 -5 66 -45 142
-27 186 42 18 30 23 52 23 108 0 56 -5 78 -23 108 -44 69 -120 87 -186 42
l-36 -24 0 84 0 85 -50 0 -50 0 0 -230z m219 4 c46 -58 14 -164 -49 -164 -40
0 -70 41 -70 95 0 85 74 127 119 69z"/>
<path d="M2800 825 l0 -45 50 0 50 0 0 45 0 45 -50 0 -50 0 0 -45z"/>
<path d="M3590 570 l0 -300 35 0 35 0 0 300 0 300 -35 0 -35 0 0 -300z"/>
<path d="M160 810 l0 -40 75 0 75 0 0 -180 0 -180 55 0 55 0 0 180 0 180 75 0
75 0 0 40 0 40 -205 0 -205 0 0 -40z"/>
<path d="M2520 785 c0 -41 -2 -45 -25 -45 -22 0 -25 -4 -25 -40 0 -36 3 -40
24 -40 24 0 24 -2 28 -100 4 -130 15 -143 123 -148 l75 -4 0 40 0 41 -47 3
-48 3 -3 83 -3 82 56 0 55 0 0 40 0 40 -55 0 -55 0 0 45 0 45 -50 0 -50 0 0
-45z"/>
<path d="M686 725 c-34 -23 -36 -23 -36 -5 0 17 -7 20 -50 20 l-50 0 0 -165 0
-165 50 0 50 0 0 95 c0 138 27 178 110 161 30 -5 30 -5 30 39 0 44 0 45 -34
45 -19 0 -49 -11 -70 -25z"/>
<path d="M1840 743 c-8 -3 -27 -15 -42 -25 -28 -19 -28 -19 -28 1 0 18 -6 21
-50 21 l-50 0 0 -165 0 -165 49 0 49 0 4 111 c3 102 5 112 27 130 29 24 63 24
84 1 14 -15 17 -40 17 -130 l0 -112 50 0 50 0 0 120 c0 138 -12 180 -59 204
-30 16 -72 19 -101 9z"/>
<path d="M2170 728 c-64 -33 -93 -91 -87 -172 6 -71 27 -102 88 -134 38 -20
54 -23 114 -19 106 8 125 18 125 66 l0 39 -50 -19 c-91 -34 -158 -20 -175 39
-6 22 -6 22 121 22 l127 0 -6 52 c-11 90 -64 140 -154 146 -46 3 -67 -1 -103
-20z m140 -68 c39 -39 27 -50 -55 -50 -82 0 -89 7 -50 45 30 31 77 33 105 5z"/>
<path d="M3097 736 c-50 -19 -67 -34 -88 -81 -37 -80 -12 -186 53 -225 42 -25
109 -35 167 -24 l46 9 3 47 3 47 -28 -14 c-75 -39 -153 2 -153 80 0 78 76 118
150 80 l30 -16 0 45 c0 25 -5 48 -11 52 -23 14 -134 14 -172 0z"/>
<path d="M4058 726 c-36 -24 -38 -24 -38 -6 0 15 -7 20 -25 20 l-25 0 0 -165
0 -165 24 0 c24 0 24 1 28 121 3 118 4 121 31 145 39 33 89 32 116 -2 19 -24
21 -40 21 -145 l0 -119 24 0 c24 0 24 1 28 121 3 118 4 121 31 145 39 33 89
32 116 -2 19 -24 21 -40 21 -145 l0 -119 26 0 26 0 -4 134 c-3 118 -6 138 -24
163 -40 53 -123 56 -174 4 l-28 -27 -23 29 c-35 42 -100 48 -151 13z"/>
<path d="M4580 732 c-38 -19 -57 -62 -46 -107 8 -31 53 -60 109 -69 80 -13
112 -57 65 -90 -28 -20 -83 -20 -137 -1 l-41 14 0 -29 c0 -26 5 -31 42 -41
119 -31 226 28 204 114 -10 40 -31 55 -111 78 -55 16 -76 27 -81 42 -14 45 63
71 144 48 32 -10 33 -9 30 17 -2 18 -11 28 -28 33 -47 13 -115 9 -150 -9z"/>
<path d="M824 708 c99 -235 126 -302 126 -317 0 -26 -21 -41 -57 -41 -31 0
-33 -2 -33 -35 0 -35 0 -35 45 -35 57 0 100 21 120 60 8 16 35 82 59 147 24
65 56 148 70 186 l26 67 -53 0 -53 0 -34 -105 c-19 -58 -36 -105 -40 -105 -3
0 -23 47 -45 105 l-39 105 -53 0 -53 0 14 -32z"/>
<path d="M2800 575 l0 -165 50 0 50 0 0 165 0 165 -50 0 -50 0 0 -165z"/>
<path d="M4842 728 c3 -7 23 -82 44 -165 l39 -153 32 0 c36 0 29 -14 74 158
13 50 26 92 29 92 3 0 16 -39 29 -87 12 -49 27 -105 32 -125 9 -34 13 -38 42
-38 l32 0 39 153 c21 83 41 158 44 165 3 10 -3 13 -23 10 -28 -3 -30 -7 -59
-121 -16 -64 -33 -114 -37 -110 -3 5 -19 59 -34 121 l-27 112 -38 0 -38 0 -27
-112 c-15 -62 -31 -116 -34 -121 -4 -4 -21 46 -37 110 -29 114 -31 118 -59
121 -20 3 -26 0 -23 -10z"/>
</g>
</svg>
